<?xml version="1.0"?>
<svg xmlns="http://www.w3.org/2000/svg" height="512px" viewBox="0 -61 512 512" width="512px"><path d="m169.265625 208.359375 37.523437-3.164063c1.285157-1.777343 2.238282-3.730468 3.742188-5.332031l5.976562-6.355469-2.5625-8.335937c-1.933593-6.226563-2.945312-13.214844-2.945312-20.171875 0-18.515625 6.824219-36.253906 19.21875-49.921875l22.71875-25.078125-147.777344.015625c-3.367187-.644531-11.644531-10.546875-16.492187-21.195313l-4.015625-8.820312h-84.652344v15c0 36.3125 15.675781 105 75 105l5.828125-.160156c17.359375-.585938 53.453125-2.433594 88.324219 28.5625zm0 0" fill="#f03800"/><path d="m422 390c-49.628906 0-90-40.371094-90-90s40.371094-90 90-90 90 40.371094 90 90-40.371094 90-90 90zm0-150c-33.089844 0-60 26.910156-60 60s26.910156 60 60 60 60-26.910156 60-60-26.910156-60-60-60zm0 0" fill="#3e5959"/><path d="m407.496094 303.824219-33.136719-122.140625 29.003906-7.644532 33.140625 122.136719zm0 0" fill="#9facba"/><path d="m90 390c-49.628906 0-90-40.371094-90-90s40.371094-90 90-90c31.65625 0 60.410156 16.15625 76.902344 43.226562l-25.601563 15.617188c-11.019531-18.0625-30.191406-28.84375-51.300781-28.84375-33.089844 0-60 26.910156-60 60s26.910156 60 60 60c28.535156 0 53.289062-20.273438 58.855469-48.222656l29.414062 5.859375c-8.332031 41.925781-45.464843 72.363281-88.269531 72.363281zm0 0" fill="#537983"/><path d="m422 330c-16.539062 0-30-13.460938-30-30s13.460938-30 30-30 30 13.460938 30 30-13.460938 30-30 30zm0 0" fill="#9facba"/><path d="m370.300781 102.300781c-20.101562-27-50.699219-42.300781-84.300781-42.300781-10.199219 0-20.398438 1.5-30 4.5-18.601562 5.398438-35.398438 15.898438-48 30.300781-17.398438 19.199219-27 44.097657-27 70.199219 0 10.199219 1.5 19.800781 4.199219 29.097656l8.699219 27.601563 17.703124-23.101563c6.296876-8.101562 13.796876-15.296875 22.800782-21 7.199218-4.796875 14.398437-9 21.597656-12.597656 21.300781-10.5 42.300781-16.5 61.199219-21.902344 19.5-5.699218 36.300781-10.496094 49.5-19.496094l12.902343-8.703124zm0 0" fill="#ff641a"/><path d="m114.902344 300h-9.902344c-8.402344 0-15-6.601562-15-15h-30c0 18.898438 11.699219 35.097656 28.199219 41.699219l26.699219-14.367188v-12.332031zm0 0" fill="#c5d3dd"/><path d="m234.402344 256.5-3.304688-10.5h-85.296875l-38.699219 54-18.902343 26.699219c5.101562 2.101562 10.800781 3.300781 16.800781 3.300781h106l28.375-50.824219c-1.128906-7.664062-2.753906-15.222656-4.972656-22.675781zm0 0" fill="#c5d3dd"/><path d="m379.601562 114.898438-12.902343 8.703124c-13.199219 9-30 13.796876-49.5 19.496094-18.898438 5.402344-39.898438 11.402344-61.199219 21.902344v-100.5c9.601562-3 19.800781-4.5 30-4.5 33.601562 0 64.199219 15.300781 84.300781 42.300781zm0 0" fill="#f03800"/><path d="m481 135v45h-15c-34.800781 0-63 4.199219-85.800781 12.597656-57 19.503906-79.199219 62.703125-79.199219 122.402344v15h-90v-30c0-40.199219-17.402344-66.300781-41.699219-91.5 13.5-23.402344 26.097657-41.101562 48.300781-56.101562 12.898438-8.699219 25.800782-15.296876 38.398438-20.699219 19.199219-8.101563 37.199219-13.199219 52.800781-17.699219 27-7.5 52.199219-11.699219 52.199219-39 0-32.101562-9.300781-43.199219-15-45l-11.398438-21.601562 11.398438-8.398438h1.800781c73.5.898438 133.199219 61.5 133.199219 135zm0 0" fill="#ff9100"/><path d="m481 135v45h-15c-34.800781 0-63 4.199219-85.800781 12.597656-57 19.503906-79.199219 62.703125-79.199219 122.402344v15h-45v-198.300781c19.199219-8.101563 37.199219-13.199219 52.800781-17.699219 27-7.5 52.199219-11.699219 52.199219-39 0-32.101562-9.300781-43.199219-15-45l-11.398438-21.601562 11.398438-8.398438h1.800781c73.5.898438 133.199219 61.5 133.199219 135zm0 0" fill="#ff641a"/><path d="m271 0h75v30h-75zm0 0" fill="#575f64"/></svg>
